<?xml version="1.0" standalone="no"?>
<!DOCTYPE svg PUBLIC "-//W3C//DTD SVG 20010904//EN"
 "http://www.w3.org/TR/2001/REC-SVG-20010904/DTD/svg10.dtd">
<svg version="1.0" xmlns="http://www.w3.org/2000/svg"
 width="1024.000000pt" height="1024.000000pt" viewBox="0 0 1024.000000 1024.000000"
 preserveAspectRatio="xMidYMid meet">
<metadata>
Created by potrace 1.14, written by Peter Selinger 2001-2017
</metadata>
<g transform="translate(0.000000,1024.000000) scale(0.100000,-0.100000)"
fill="#000000" stroke="none">
<path d="M0 9611 l0 -631 842 0 c478 0 838 4 832 9 -13 12 -1646 1235 -1661
1245 -10 6 -13 -122 -13 -623z"/>
<path d="M8000 7122 l0 -2839 954 -711 c525 -392 957 -712 960 -712 3 0 6
1598 6 3550 l0 3550 -960 0 -960 0 0 -2838z"/>
<path d="M0 8320 l0 -620 1280 0 1280 0 0 313 0 312 -410 308 -410 307 -870 0
-870 0 0 -620z"/>
<path d="M2880 8402 l0 -278 960 -717 960 -716 0 994 0 995 -960 0 -960 0 0
-278z"/>
<path d="M2600 7996 l0 -296 392 0 c330 0 390 2 378 13 -17 16 -738 559 -757
571 -10 6 -13 -55 -13 -288z"/>
<path d="M0 7040 l0 -620 1280 0 1280 0 0 620 0 620 -1280 0 -1280 0 0 -620z"/>
<path d="M2600 7040 l0 -620 1248 0 1247 1 -28 22 c-15 13 -387 292 -826 620
l-799 597 -421 0 -421 0 0 -620z"/>
<path d="M5440 6612 l0 -408 522 -389 c287 -215 719 -537 960 -717 l438 -328
0 1125 0 1125 -960 0 -960 0 0 -408z"/>
<path d="M0 5750 l0 -630 1280 0 1280 0 0 630 0 630 -1280 0 -1280 0 0 -630z"/>
<path d="M2600 5750 l0 -630 1250 0 1250 0 0 630 0 630 -1250 0 -1250 0 0
-630z"/>
<path d="M5140 5750 l0 -630 842 0 c711 0 840 2 828 14 -26 23 -1658 1246
-1664 1246 -3 0 -6 -283 -6 -630z"/>
<path d="M0 4470 l0 -610 1280 0 1280 0 0 610 0 610 -1280 0 -1280 0 0 -610z"/>
<path d="M2600 4470 l0 -610 1250 0 1250 0 0 610 0 610 -1250 0 -1250 0 0
-610z"/>
<path d="M5140 4470 l0 -610 1260 0 1260 0 0 320 0 321 -387 289 -388 290
-872 0 -873 0 0 -610z"/>
<path d="M7700 4165 l0 -305 402 0 c261 0 399 3 392 10 -5 5 -122 94 -260 197
-137 104 -314 236 -392 296 l-142 108 0 -306z"/>
<path d="M0 3200 l0 -620 1280 0 1280 0 0 620 0 620 -1280 0 -1280 0 0 -620z"/>
<path d="M2600 3200 l0 -620 1250 0 1250 0 0 620 0 620 -1250 0 -1250 0 0
-620z"/>
<path d="M5140 3200 l0 -620 1260 0 1260 0 0 620 0 620 -1260 0 -1260 0 0
-620z"/>
<path d="M7700 3200 l0 -620 1257 0 c878 0 1254 3 1247 10 -6 6 -377 285 -825
620 l-814 609 -432 1 -433 0 0 -620z"/>
<path d="M0 1910 l0 -630 1280 0 1280 0 0 630 0 630 -1280 0 -1280 0 0 -630z"/>
<path d="M2600 1910 l0 -630 1250 0 1250 0 0 630 0 630 -1250 0 -1250 0 0
-630z"/>
<path d="M5140 1910 l0 -630 1260 0 1260 0 0 630 0 630 -1260 0 -1260 0 0
-630z"/>
<path d="M7700 1910 l0 -630 1270 0 1270 0 0 630 0 630 -1270 0 -1270 0 0
-630z"/>
<path d="M0 620 l0 -620 2550 0 2550 0 0 620 0 620 -1250 0 -1250 0 0 -610 c0
-603 0 -610 -20 -610 -20 0 -20 7 -20 610 l0 610 -1280 0 -1280 0 0 -620z"/>
<path d="M5140 620 l0 -620 1260 0 1260 0 0 620 0 620 -1260 0 -1260 0 0 -620z"/>
<path d="M7700 620 l0 -620 1270 0 1270 0 0 620 0 620 -1270 0 -1270 0 0 -620z"/>
</g>
</svg>
